<svg width="603" height="982" viewBox="0 0 603 982" fill="none" xmlns="http://www.w3.org/2000/svg">
<path d="M-2.51141e-05 -114.752L120.42 -88.6803C240.841 -62.6085 481.681 -10.617 521.84 41.9138C561.997 93.9116 401.473 146.296 414.789 198.077C429.11 250.618 614.763 303.089 602.241 354.88C589.72 407.204 374.008 459.307 321.35 511.876C268.692 563.989 374.072 616.188 414.983 668.718C454.388 720.564 429.324 773.046 428.593 824.832C429.367 877.303 454.474 929.155 468.784 955.803L482.089 981.691L0.450891 981.889L0.440151 955.767C0.42941 929.646 0.407992 877.555 0.386385 825.008C0.364998 772.994 0.343485 720.675 0.322192 668.889C0.300586 616.342 0.278979 563.794 0.257686 512.009C0.236174 459.69 0.214786 407.675 0.19318 355.128C0.171761 303.038 0.15028 250.795 0.128674 198.247C0.107349 146.385 0.0857742 93.9142 0.064481 42.1284C0.0429059 -10.3429 0.0215813 -62.2048 0.0106215 -88.8593L-2.51141e-05 -114.752Z" fill="#4F4E4E" fill-opacity="0.15"/>
</svg>
